<svg width="50" height="50" viewBox="0 0 50 50" fill="none" xmlns="http://www.w3.org/2000/svg"><path d="M25.456 0C11.409 0 0 11.205 0 25s11.41 25 25.456 25c10.977 0 17.678-4.96 21.167-11.107 3.489-6.148 3.93-13.37 2.87-18.309l-.207-.849h-.865l-22.965-.034h-1.107v11.311h12.659c-1.911 4.348-5.802 7.337-11.552 7.337-7.514 0-13.593-5.97-13.593-13.349 0-7.38 6.079-13.35 13.593-13.35 3.376 0 6.442 1.228 8.82 3.228l.795.645 7.574-7.439.796-.815-.83-.747C38.089 2.475 32.053 0 25.456 0zm0 2.174c5.616 0 10.683 2.017 14.699 5.265l-5.326 5.23c-2.633-1.931-5.832-3.192-9.373-3.192C16.744 9.477 9.65 16.445 9.65 25c0 8.556 7.094 15.523 15.806 15.523 7.25 0 12.464-4.365 14.319-10.292l.45-1.393H26.561v-6.963l20.856.034c.735 4.386.247 10.683-2.732 15.93-3.165 5.571-8.915 9.987-19.23 9.987C12.602 47.826 2.214 37.62 2.214 25S12.602 2.174 25.456 2.174z" fill="#fff"/></svg>