<svg width="30" height="50" viewBox="0 0 30 50" fill="none" xmlns="http://www.w3.org/2000/svg"><path d="M28.866 1.287h0a.173.173 0 01.113.047c.02.02.02.033.02.039v7.323c0 .003 0 .018-.023.04a.188.188 0 01-.13.047h-5.77c-2.406 0-4.46 1.852-4.46 4.26v6.435h10.23c.067 0 .112.027.135.051a.077.077 0 01.018.027.023.023 0 010 .011h0l-.897 7.61h0c0 .006-.004.021-.029.042a.193.193 0 01-.125.042h-9.333v21.652c0 .004 0 .018-.024.04a.188.188 0 01-.13.047h-8.076a.188.188 0 01-.13-.046c-.024-.023-.024-.037-.024-.04V27.26H1.154a.188.188 0 01-.13-.046C1 27.192 1 27.178 1 27.174v0-7.609 0c0-.004 0-.018.024-.04a.188.188 0 01.13-.047h9.077V11.27c0-3.417 1.078-5.948 2.876-7.631C14.916 1.947 17.572 1 20.932 1c2.55 0 6.112.165 7.934.287z" fill="#000" stroke="#fff" stroke-width="2"/></svg>