<svg width="382" height="683" viewBox="0 0 382 683" fill="none" xmlns="http://www.w3.org/2000/svg"><path d="M92.011 27.387s52.183-19.448 98.614-18.058c46.431 1.39 95.673 15.278 95.673 15.278s-29.007 259.75-26.097 334.781c2.911 75.03 27.507 294.505 27.507 294.505s-47.841 20.828-92.782 18.058c-44.941-2.771-97.123-16.669-97.123-16.669s23.896-229.222 23.896-319.511c0-90.29-29.688-308.384-29.688-308.384z" fill="#D3609E"/><path d="M92.011 27.387s52.183-19.448 98.614-18.058c46.431 1.39 95.673 15.278 95.673 15.278s-29.007 259.75-26.097 334.781c2.911 75.03 27.507 294.505 27.507 294.505s-47.841 20.828-92.782 18.058c-44.941-2.771-97.123-16.669-97.123-16.669s23.896-229.222 23.896-319.511c0-90.29-29.688-308.384-29.688-308.384z" stroke="#E9D521" stroke-width=".5" stroke-miterlimit="10"/><path d="M51.422 148.243S90.602 78.8 86.21 27.387c0 0 17.394-26.387 102.925-26.387 85.53 0 110.166 18.058 110.166 18.058s14.803 105.568 35.098 125.015c0 0-96.023 18.058-148.165 18.058-52.143 0-134.812-13.888-134.812-13.888" fill="#D3609E"/><path d="M51.422 148.243S90.602 78.8 86.21 27.387c0 0 17.394-26.387 102.925-26.387 85.53 0 110.166 18.058 110.166 18.058s14.803 105.568 35.098 125.015c0 0-96.023 18.058-148.165 18.058-52.143 0-134.812-13.888-134.812-13.888z" stroke="#E9D521" stroke-width=".5" stroke-miterlimit="10"/><path d="M336.8 539.632s-41.88 67.976-39.58 119.494c0 0-18.434 25.736-103.894 22.611-85.461-3.124-109.376-22.045-109.376-22.045S73.357 553.635 53.852 533.459c0 0 96.633-14.54 148.776-12.633 52.142 1.908 134.172 18.806 134.172 18.806" fill="#D3609E"/><path d="M336.8 539.632s-41.88 67.976-39.58 119.494c0 0-18.434 25.736-103.894 22.611-85.461-3.124-109.376-22.045-109.376-22.045S73.357 553.635 53.852 533.459c0 0 96.633-14.54 148.776-12.633 52.142 1.908 134.172 18.806 134.172 18.806z" stroke="#E9D521" stroke-width=".5" stroke-miterlimit="10"/><path d="M300.181 560.748H81.819a83.892 83.892 0 01-30.93-5.893c-9.806-3.892-18.716-9.596-26.22-16.788-7.506-7.192-13.459-15.73-17.52-25.126A74.64 74.64 0 011 483.302V203.404a74.636 74.636 0 016.15-29.638c4.06-9.397 10.013-17.935 17.518-25.127 7.505-7.192 16.415-12.896 26.221-16.788a83.892 83.892 0 0130.93-5.893h218.362c21.434 0 41.991 8.16 57.148 22.684C372.485 163.166 381 182.864 381 203.404v279.879c0 20.54-8.515 40.238-23.671 54.762-15.157 14.524-35.714 22.683-57.148 22.683" fill="#D3609E"/><path d="M300.181 125.968H81.819C37.184 125.968 1 160.642 1 203.414v279.898c0 42.772 36.184 77.445 80.82 77.445H300.18c44.635 0 80.819-34.673 80.819-77.445V203.414c0-42.772-36.184-77.446-80.819-77.446z" stroke="#E9D521" stroke-width=".5" stroke-miterlimit="10"/><path d="M289.528 536.383H92.482c-19.145 0-37.507-7.288-51.044-20.261-13.538-12.973-21.143-30.567-21.143-48.914V219.507c0-18.347 7.605-35.941 21.143-48.914 13.537-12.973 31.898-20.26 51.044-20.26h197.046c19.146 0 37.509 7.287 51.048 20.26 13.539 12.972 21.147 30.567 21.149 48.914v247.701c-.002 18.347-7.61 35.942-21.149 48.914-13.539 12.973-31.902 20.261-51.048 20.261" fill="#D3609E"/><path d="M289.538 150.333H92.462c-39.868 0-72.187 30.97-72.187 69.174v247.711c0 38.204 32.319 69.174 72.187 69.174h197.076c39.868 0 72.187-30.97 72.187-69.174V219.507c0-38.204-32.319-69.174-72.187-69.174z" stroke="#E9D521" stroke-width=".5" stroke-miterlimit="10"/><path d="M277.575 520.596H104.414a67.692 67.692 0 01-24.963-4.759c-7.914-3.141-15.104-7.746-21.161-13.551-6.057-5.805-10.862-12.696-14.139-20.281a60.244 60.244 0 01-4.962-23.921V228.631a60.248 60.248 0 014.962-23.922c3.277-7.584 8.082-14.475 14.139-20.28 6.057-5.805 13.247-10.41 21.161-13.552a67.711 67.711 0 0124.963-4.758h173.161c17.302 0 33.895 6.586 46.129 18.309 12.234 11.724 19.107 27.624 19.107 44.203v229.453a60.242 60.242 0 01-4.966 23.922c-3.278 7.584-8.083 14.476-14.141 20.281-6.058 5.804-13.249 10.409-21.164 13.551a67.724 67.724 0 01-24.965 4.758z" fill="#BA3263"/><path d="M277.585 166.128H104.414c-36.023 0-65.225 27.984-65.225 62.503v229.472c0 34.519 29.202 62.503 65.225 62.503h173.171c36.023 0 65.226-27.984 65.226-62.503V228.631c0-34.519-29.203-62.503-65.226-62.503z" stroke="#E9D521" stroke-width=".5" stroke-miterlimit="10"/><path d="M85.223 320.125H95.71v-68.6h-9.604l-15.19 7.448 3.92 7.938 10.388-5.096v58.31zm56.551 1.176c19.502 0 35.672-15.876 35.672-35.476s-16.17-35.476-35.672-35.476c-19.6 0-35.77 15.876-35.77 35.476s16.17 35.476 35.77 35.476zm-25.284-35.476c0-13.818 11.466-24.99 25.284-24.99s25.186 11.172 25.186 24.99c0 13.818-11.368 24.99-25.186 24.99s-25.284-11.172-25.284-24.99zm77.501-3.822c3.528 0 6.272-2.842 6.272-6.37a6.253 6.253 0 00-6.272-6.272 6.253 6.253 0 00-6.272 6.272c0 3.528 2.744 6.37 6.272 6.37zm-6.272 32.928c0 3.528 2.744 6.37 6.272 6.37s6.272-2.842 6.272-6.37a6.253 6.253 0 00-6.272-6.272 6.253 6.253 0 00-6.272 6.272zm38.571 5.194h10.486v-68.6h-9.604l-15.19 7.448 3.92 7.938 10.388-5.096v58.31zm56.55 1.176c19.502 0 35.672-15.876 35.672-35.476s-16.17-35.476-35.672-35.476c-19.6 0-35.77 15.876-35.77 35.476s16.17 35.476 35.77 35.476zm-25.284-35.476c0-13.818 11.466-24.99 25.284-24.99s25.186 11.172 25.186 24.99c0 13.818-11.368 24.99-25.186 24.99s-25.284-11.172-25.284-24.99zM109.975 213.102h11.97v-3.21h-8.76v-17.79h-3.21v21zm21.684.36c2.16 0 3.78-.93 4.89-2.43v2.07h2.94v-15.21h-2.94v7.29c0 2.91-1.71 5.34-4.62 5.34-2.28 0-4.05-1.77-4.05-4.47v-8.16h-2.94v8.16c0 4.11 2.61 7.41 6.72 7.41zm11.122-.36h2.94v-7.29c0-2.91 1.71-5.34 4.62-5.34 2.28 0 4.05 1.77 4.05 4.47v8.16h2.94v-8.16c0-4.11-2.61-7.41-6.72-7.41-2.16 0-3.78.96-4.89 2.43v-2.07h-2.94v15.21zm20.242.36c1.05 0 1.92-.87 1.92-1.95 0-1.05-.87-1.92-1.92-1.92-1.08 0-1.95.87-1.95 1.92 0 1.08.87 1.95 1.95 1.95zm19.92-3.57v3.21h13.17v-3.21h-8.67c4.77-4.74 8.07-7.77 8.07-11.88 0-3.63-2.55-6.24-6.15-6.24-3.15 0-5.19 1.86-6.24 5.1l3.09.78c.81-2.07 1.98-2.7 3.15-2.7 1.83 0 2.94 1.2 2.94 3.06 0 2.79-2.94 5.46-7.11 9.72-.69.69-1.47 1.44-2.25 2.16zm25.622 3.21h3.21v-4.29h2.67v-3.21h-2.67v-13.5h-3.81l-8.85 13.5v3.21h9.45v4.29zm-5.91-7.5l5.91-9.03v9.03h-5.91zm29.657 7.83c4.41 0 8.1-3.54 8.1-7.95s-3.69-7.95-8.1-7.95-8.1 3.54-8.1 7.95 3.69 7.95 8.1 7.95zm-5.13-7.95c0-2.79 2.34-5.01 5.13-5.01s5.16 2.22 5.16 5.01c0 2.79-2.37 5.01-5.16 5.01s-5.13-2.22-5.13-5.01zm23.351 7.95c2.97 0 5.55-1.59 6.93-3.96l-2.64-1.29c-.9 1.41-2.49 2.31-4.29 2.31-2.79 0-5.07-2.22-5.07-5.01 0-2.79 2.28-5.01 5.07-5.01 1.8 0 3.39.93 4.29 2.34l2.64-1.29a7.955 7.955 0 00-6.93-3.99c-4.41 0-8.01 3.54-8.01 7.95s3.6 7.95 8.01 7.95zm16.334-.09c1.23 0 2.37-.48 3.21-1.23l-1.59-2.34c-.36.33-.96.63-1.62.63-1.98 0-2.01-1.68-2.01-2.7v-7.14h4.14v-2.67h-4.14v-3.39h-2.94v3.39h-2.79v2.67h2.79v7.14c0 3.48 1.47 5.64 4.95 5.64zm7.865.12c1.05 0 1.92-.87 1.92-1.95 0-1.05-.87-1.92-1.92-1.92-1.08 0-1.95.87-1.95 1.92 0 1.08.87 1.95 1.95 1.95zM151.574 491.257h3.21v-17.79h5.19v-3.21h-13.59v3.21h5.19v17.79zm11.489 0h2.91v-15.21h-2.91v15.21zm-.24-19.65c0 .93.78 1.68 1.68 1.68.93 0 1.71-.75 1.71-1.68 0-.93-.78-1.68-1.71-1.68-.9 0-1.68.75-1.68 1.68zm6.537 19.65h2.94v-7.92l6.09 7.92h3.69l-6.36-8.22 5.43-6.99h-3.45l-5.4 6.99v-14.13h-2.94v22.35zm16.931.36c1.05 0 1.92-.87 1.92-1.95 0-1.05-.87-1.92-1.92-1.92-1.08 0-1.95.87-1.95 1.92 0 1.08.87 1.95 1.95 1.95zm10.547-.36h3.21v-17.79h5.19v-3.21h-13.59v3.21h5.19v17.79zm16.519.33c2.31 0 4.2-.96 5.55-2.4v2.07h2.94v-15.21h-2.94v2.04c-1.35-1.41-3.24-2.4-5.55-2.4-4.41 0-7.83 3.54-7.83 7.95s3.42 7.95 7.83 7.95zm-4.86-7.95c0-2.79 2.34-5.01 5.13-5.01s5.16 2.22 5.16 5.01c0 2.79-2.37 5.01-5.16 5.01s-5.13-2.22-5.13-5.01zm16.644 7.62h2.94v-7.92l6.09 7.92h3.69l-6.36-8.22 5.43-6.99h-3.45l-5.4 6.99v-14.13h-2.94v22.35zm16.931.36c1.05 0 1.92-.87 1.92-1.95 0-1.05-.87-1.92-1.92-1.92-1.08 0-1.95.87-1.95 1.92 0 1.08.87 1.95 1.95 1.95z" fill="#E9D521"/><path d="M270.514 381.136c-4.889.294-9.535 2.143-13.203 5.253l9.142 8.76a9.216 9.216 0 014.061-1.61v-12.403z" fill="#BBBDBF"/><path d="M249.889 403.555c.304 4.683 2.229 9.136 5.471 12.652l9.142-8.76a8.7 8.7 0 01-1.68-3.892h-12.933z" fill="#929497"/><path d="M255.36 388.258c-3.242 3.516-5.167 7.969-5.471 12.652h12.933a8.598 8.598 0 011.68-3.892l-9.142-8.76z" fill="#A6A8AB"/><path d="M286.478 386.389c-3.669-3.11-8.315-4.959-13.203-5.253v12.403a9.156 9.156 0 014.06 1.61l9.143-8.76z" fill="#231F20"/><path d="M279.286 407.447l9.152 8.76c3.242-3.516 5.167-7.969 5.471-12.652h-12.933a8.547 8.547 0 01-1.69 3.892" fill="#58595B"/><path d="M293.899 400.91c-.296-4.685-2.222-9.14-5.471-12.652l-9.142 8.76a8.621 8.621 0 011.69 3.901l12.923-.009z" fill="#404041"/><path d="M257.311 418.105c3.669 3.107 8.316 4.952 13.203 5.243v-12.422a9.488 9.488 0 01-4.061-1.61l-9.142 8.789z" fill="#808284"/><path d="M273.275 423.319c4.888-.284 9.537-2.13 13.203-5.242l-9.143-8.761a9.387 9.387 0 01-4.06 1.61v12.393z" fill="#6D6E70"/><path d="M131.841 415.45h-42.42v8.895h42.42v-8.895z" fill="url(#paint0_radial_9_144)"/><path d="M131.681 380.274h-42.1v40.343h42.1v-40.343z" fill="url(#paint1_radial_9_144)"/><path d="M110.606 380.418c4.133-.002 8.174 1.17 11.611 3.369 3.438 2.199 6.117 5.326 7.701 8.984a19.25 19.25 0 011.193 11.57c-.805 3.884-2.795 7.453-5.717 10.254-2.921 2.801-6.644 4.709-10.698 5.483a21.748 21.748 0 01-12.074-1.138c-3.819-1.515-7.082-4.082-9.379-7.375-2.296-3.292-3.522-7.164-3.522-11.125.005-5.307 2.207-10.395 6.122-14.149 3.916-3.754 9.225-5.866 14.763-5.873zm0-.307c-4.196 0-8.298 1.192-11.786 3.426-3.49 2.234-6.208 5.409-7.814 9.124a19.54 19.54 0 00-1.207 11.745c.818 3.944 2.839 7.566 5.806 10.41 2.967 2.843 6.747 4.779 10.862 5.563a22.07 22.07 0 0012.258-1.157c3.876-1.538 7.19-4.144 9.521-7.487 2.331-3.343 3.575-7.274 3.575-11.295 0-5.391-2.235-10.562-6.214-14.375-3.978-3.812-9.374-5.954-15.001-5.954z" fill="#8C98A0"/><path d="M110.486 397.43H95.472v14.387h15.014V397.43z" fill="url(#paint2_radial_9_144)" opacity=".6"/><path d="M103.034 390.491h-3.61v3.46h3.61v-3.46z" fill="url(#paint3_radial_9_144)" opacity=".8"/><path d="M103.524 403.708h-5.591v5.358h5.591v-5.358z" fill="url(#paint4_radial_9_144)" opacity=".8"/><path d="M116.747 385.89h-6.741v6.47h6.741v-6.47z" fill="url(#paint5_radial_9_144)" opacity=".8"/><path d="M112.856 395.226h-1.38v1.322h1.38v-1.322z" fill="url(#paint6_radial_9_144)"/><path d="M106.755 395.705h-2.851v2.732h2.851v-2.732z" fill="url(#paint7_radial_9_144)"/><path d="M130.861 389.619h-19.765v18.939h19.765v-18.939z" fill="url(#paint8_radial_9_144)" opacity=".8"/><path d="M141.863 405.903l-26.266 25.209-26.266-25.218 26.266-25.208 26.266 25.217z" fill="url(#paint9_linear_9_144)"/><path d="M104.385 377.719l-11.882 38.762 24.731 6.962 11.882-38.763-24.731-6.961z" fill="url(#paint10_linear_9_144)" opacity=".4"/><path d="M95.672 390.769l36.509 9.892-6.321 21.192-36.509-9.892 6.321-21.192z" fill="url(#paint11_linear_9_144)" opacity=".7"/><path d="M125.755 381.16l-34.535 6.715 3.767 17.791 34.535-6.715-3.767-17.791z" fill="url(#paint12_linear_9_144)"/><path d="M108.415 430.278l-28.076-36.356 36.688-26.358 28.077 36.355-36.689 26.359z" fill="url(#paint13_linear_9_144)"/><path d="M109.042 382.229l-10.25.206.811 37.114 10.25-.206-.811-37.114z" fill="url(#paint14_linear_9_144)"/><path d="M92.772 404.427l35.118-11.674 8.892 24.355-35.108 11.674-8.902-24.355z" fill="url(#paint15_linear_9_144)" opacity=".7"/><path d="M123.309 382.66H97.963v12.355h25.346V382.66z" fill="url(#paint16_linear_9_144)"/><path d="M210.573 363.252l-57.35 22.888 23.884 54.956 57.35-22.887-23.884-54.957z" fill="url(#paint17_linear_9_144)"/><path d="M193.816 379.708c4.649 0 9.193 1.321 13.059 3.796 3.865 2.475 6.878 5.993 8.657 10.109a21.653 21.653 0 011.338 13.014c-.907 4.369-3.146 8.383-6.433 11.533-3.288 3.15-7.476 5.295-12.036 6.164a24.468 24.468 0 01-13.581-1.281c-4.295-1.705-7.966-4.592-10.549-8.296-2.582-3.705-3.961-8.059-3.961-12.514.005-5.973 2.484-11.699 6.891-15.922 4.407-4.223 10.382-6.598 16.615-6.603m0-.479c-4.748 0-9.389 1.349-13.337 3.877-3.948 2.528-7.025 6.12-8.842 10.324a22.112 22.112 0 00-1.366 13.29c.926 4.463 3.213 8.562 6.57 11.779 3.357 3.217 7.635 5.408 12.291 6.295 4.657.888 9.484.432 13.87-1.309 4.387-1.741 8.136-4.689 10.774-8.472 2.637-3.783 4.045-8.231 4.045-12.78 0-6.101-2.529-11.952-7.031-16.266-4.502-4.314-10.608-6.738-16.974-6.738z" fill="#B2B4B7"/><path d="M197.6 369.134l-38.374 29.523 30.81 36.773 38.374-29.524-30.81-36.772z" fill="url(#paint18_linear_9_144)"/><path d="M208.329 388.334h-29.007v27.797h29.007v-27.797z" fill="url(#paint19_radial_9_144)"/><path d="M193.816 388.813c2.769 0 5.477.787 7.78 2.262 2.302 1.474 4.097 3.57 5.157 6.022a12.9 12.9 0 01.797 7.753c-.54 2.603-1.874 4.994-3.832 6.871a14.197 14.197 0 01-7.17 3.672 14.575 14.575 0 01-8.091-.763c-2.559-1.016-4.746-2.736-6.285-4.943a13.027 13.027 0 01-2.36-7.455c0-3.559 1.476-6.972 4.102-9.488 2.626-2.517 6.188-3.931 9.902-3.931zm0-.958a15.47 15.47 0 00-8.336 2.423c-2.467 1.58-4.39 3.825-5.526 6.452a13.833 13.833 0 00-.854 8.307c.579 2.789 2.008 5.351 4.107 7.362a15.211 15.211 0 007.682 3.934c2.91.555 5.927.27 8.668-.818 2.742-1.088 5.085-2.931 6.734-5.295a13.958 13.958 0 002.528-7.988c0-3.813-1.58-7.47-4.394-10.166-2.814-2.696-6.63-4.211-10.609-4.211z" fill="#8C98A0"/><path d="M201.313 378.327l-34.086 18.934 19.247 31.818 34.087-18.934-19.248-31.818z" fill="url(#paint20_linear_9_144)" opacity=".8"/><defs><linearGradient id="paint9_linear_9_144" x1="125.63" y1="398.343" x2="102.865" y2="422.057" gradientUnits="userSpaceOnUse"><stop/><stop offset=".6" stop-color="#fff"/><stop offset=".9"/><stop offset="1"/></linearGradient><linearGradient id="paint10_linear_9_144" x1="120.452" y1="380.342" x2="109.879" y2="417.766" gradientUnits="userSpaceOnUse"><stop/><stop offset=".6" stop-color="#fff"/><stop offset=".9"/><stop offset="1"/></linearGradient><linearGradient id="paint11_linear_9_144" x1="96.98" y1="399.847" x2="131.445" y2="410.131" gradientUnits="userSpaceOnUse"><stop/><stop offset=".6" stop-color="#fff"/><stop offset=".9"/><stop offset="1"/></linearGradient><linearGradient id="paint12_linear_9_144" x1="126.877" y1="393.305" x2="94.066" y2="400.253" gradientUnits="userSpaceOnUse"><stop/><stop offset=".6" stop-color="#fff"/><stop offset=".9"/><stop offset="1"/></linearGradient><linearGradient id="paint13_linear_9_144" x1="123.296" y1="412.236" x2="100.101" y2="379.954" gradientUnits="userSpaceOnUse"><stop/><stop offset=".6" stop-color="#fff"/><stop offset=".9"/><stop offset="1"/></linearGradient><linearGradient id="paint14_linear_9_144" x1="100.542" y1="381.498" x2="101.297" y2="418.652" gradientUnits="userSpaceOnUse"><stop/><stop offset=".6" stop-color="#fff"/><stop offset=".9"/><stop offset="1"/></linearGradient><linearGradient id="paint15_linear_9_144" x1="102.687" y1="414.754" x2="134.597" y2="403.103" gradientUnits="userSpaceOnUse"><stop/><stop offset=".6" stop-color="#fff"/><stop offset=".9"/><stop offset="1"/></linearGradient><linearGradient id="paint16_linear_9_144" x1="111.106" y1="382.66" x2="111.106" y2="399.079" gradientUnits="userSpaceOnUse"><stop stop-color="#fff"/><stop offset="1"/></linearGradient><linearGradient id="paint17_linear_9_144" x1="183.162" y1="386.194" x2="199.683" y2="427.591" gradientUnits="userSpaceOnUse"><stop stop-color="#fff"/><stop offset="1" stop-color="#D4D6D7"/></linearGradient><linearGradient id="paint18_linear_9_144" x1="210.975" y1="417.845" x2="188.247" y2="388.303" gradientUnits="userSpaceOnUse"><stop stop-color="#fff"/><stop offset="1" stop-color="#B8BABC"/></linearGradient><linearGradient id="paint20_linear_9_144" x1="190.916" y1="398.881" x2="201.065" y2="417.152" gradientUnits="userSpaceOnUse"><stop stop-color="#fff"/><stop offset="1" stop-color="#B7C6CE"/></linearGradient><radialGradient id="paint0_radial_9_144" cx="0" cy="0" r="1" gradientUnits="userSpaceOnUse" gradientTransform="matrix(21.205 0 0 4.44738 110.636 420.262)"><stop stop-color="#DADADA"/><stop offset=".1" stop-color="#DADADA"/><stop offset="1" stop-color="#fff"/></radialGradient><radialGradient id="paint1_radial_9_144" cx="0" cy="0" r="1" gradientUnits="userSpaceOnUse" gradientTransform="matrix(21.8652 0 0 20.9525 110.576 418.01)"><stop stop-color="#fff"/><stop offset="1" stop-color="#B1BFC7"/></radialGradient><radialGradient id="paint2_radial_9_144" cx="0" cy="0" r="1" gradientUnits="userSpaceOnUse" gradientTransform="matrix(7.51178 0 0 7.19823 102.984 401.283)"><stop stop-color="#fff"/><stop offset=".11" stop-color="#fff"/><stop offset=".95"/><stop offset="1"/></radialGradient><radialGradient id="paint3_radial_9_144" cx="0" cy="0" r="1" gradientUnits="userSpaceOnUse" gradientTransform="matrix(1.80043 0 0 1.72528 101.234 394.622)"><stop stop-color="#fff"/><stop offset=".11" stop-color="#fff"/><stop offset=".95"/><stop offset="1"/></radialGradient><radialGradient id="paint4_radial_9_144" cx="0" cy="0" r="1" gradientUnits="userSpaceOnUse" gradientTransform="matrix(2.80066 0 0 2.68376 100.734 404.226)"><stop stop-color="#fff"/><stop offset=".11" stop-color="#fff"/><stop offset=".95"/><stop offset="1"/></radialGradient><radialGradient id="paint5_radial_9_144" cx="0" cy="0" r="1" gradientUnits="userSpaceOnUse" gradientTransform="matrix(3.3708 0 0 3.2301 113.377 390.826)"><stop stop-color="#fff"/><stop offset=".11" stop-color="#fff"/><stop offset=".95"/><stop offset="1"/></radialGradient><radialGradient id="paint6_radial_9_144" cx="0" cy="0" r="1" gradientUnits="userSpaceOnUse" gradientTransform="matrix(.69 0 0 .66099 112.166 396.404)"><stop stop-color="#fff"/><stop offset=".11" stop-color="#fff"/><stop offset=".95"/><stop offset="1"/></radialGradient><radialGradient id="paint7_radial_9_144" cx="0" cy="0" r="1" gradientUnits="userSpaceOnUse" gradientTransform="matrix(1.42034 0 0 1.36106 105.335 400.45)"><stop stop-color="#fff"/><stop offset=".11" stop-color="#fff"/><stop offset=".95"/><stop offset="1"/></radialGradient><radialGradient id="paint8_radial_9_144" cx="0" cy="0" r="1" gradientUnits="userSpaceOnUse" gradientTransform="matrix(9.88234 0 0 9.46985 120.988 399.127)"><stop stop-color="#fff"/><stop offset=".11" stop-color="#fff"/><stop offset=".95"/><stop offset="1"/></radialGradient><radialGradient id="paint19_radial_9_144" cx="0" cy="0" r="1" gradientUnits="userSpaceOnUse" gradientTransform="matrix(7.68182 0 0 7.36118 197.667 11698.6)"><stop stop-color="#fff"/><stop offset="1" stop-color="#B1BFC7"/></radialGradient></defs></svg>